<svg width="39" height="24" viewBox="0 0 39 24" fill="none" xmlns="http://www.w3.org/2000/svg">
<path d="M26.8079 14.7695L23.0935 10.3121C22.6592 9.79109 23.0298 9 23.708 9L30.292 9C30.9702 9 31.3408 9.79108 30.9065 10.3121L27.1921 14.7695C27.0921 14.8895 26.9079 14.8895 26.8079 14.7695Z" fill="#263238"/>
<g clip-path="url(#clip0_894_33998)">
<path d="M12 2H2C0.9 2 0 2.9 0 4V20C0 21.1 0.89 22 1.99 22H14C15.1 22 16 21.1 16 20V6L12 2ZM14 20H2V4H11V7H14V20ZM4 15.91H12V17.91H4V15.91ZM4 12.45H12V14.45H4V12.45ZM4 9.03H12V11.03H4V9.03Z" fill="#263238"/>
</g>
<defs>
<clipPath id="clip0_894_33998">
<path d="M0 2H16V18C16 20.2091 14.2091 22 12 22H4C1.79086 22 0 20.2091 0 18V2Z" fill="white"/>
</clipPath>
</defs>
</svg>
